<svg width="22" height="24" viewBox="0 0 22 24" fill="none" xmlns="http://www.w3.org/2000/svg">
<path fill-rule="evenodd" clip-rule="evenodd" d="M11.7 0.654979L21.7 10.4564C21.8919 10.6445 22 10.9019 22 11.1706V23.2501C22 23.5263 21.7761 23.7501 21.5 23.7501H14.5C14.2239 23.7501 14 23.5263 14 23.2501V17.7505C14 16.1528 12.7511 14.8468 11.1763 14.7556L11 14.7505C9.40232 14.7505 8.09634 15.9994 8.00509 17.5742L8 17.7505V23.2501C7.99998 23.5263 7.77613 23.7501 7.5 23.7502L0.5 23.7505C0.25454 23.7505 0.0503841 23.5736 0.00803813 23.3404L0 23.2505V23.2505V11.1706C0 10.9019 0.108129 10.6445 0.300019 10.4564L10.3 0.654979C10.6889 0.273861 11.3111 0.273861 11.7 0.654979Z" fill="#262626"/>
</svg>
